<?xml version="1.0" encoding="utf-8"?>
<!-- Generator: Adobe Illustrator 27.0.0, SVG Export Plug-In . SVG Version: 6.00 Build 0)  -->
<svg version="1.1" id="Layer_1" xmlns="http://www.w3.org/2000/svg" xmlns:xlink="http://www.w3.org/1999/xlink" x="0px" y="0px"
	 viewBox="0 0 500 500" style="enable-background:new 0 0 500 500;" xml:space="preserve">
<style type="text/css">
	.st0{fill:url(#SVGID_1_);}
	.st1{fill:url(#SVGID_00000100384757516873758840000001455339020836037292_);}
	.st2{fill:url(#SVGID_00000060747228416224782450000014973412668684268448_);}
	.st3{fill:url(#SVGID_00000116229482406482170300000008826641619839221946_);}
	.st4{fill:url(#SVGID_00000022547290246080995410000003398152942111213242_);}
	.st5{fill:url(#SVGID_00000129202867185958374700000010910363666407159939_);}
</style>
<g>
	<g>
		<g>
			<g>
				<g>
					
						<linearGradient id="SVGID_1_" gradientUnits="userSpaceOnUse" x1="355.1028" y1="379.7274" x2="357.5002" y2="379.7274" gradientTransform="matrix(1 0 0 -1 0 502)">
						<stop  offset="0" style="stop-color:#5865B9"/>
						<stop  offset="1" style="stop-color:#1C91E2"/>
					</linearGradient>
					<path class="st0" d="M357.3,121.6c-0.7,0.5-1.6,0.9-2.3,1.4C356,122.5,356.7,122,357.3,121.6
						C357.6,121.6,357.3,121.6,357.3,121.6z"/>
					
						<linearGradient id="SVGID_00000145033484282813130200000011509323702030839484_" gradientUnits="userSpaceOnUse" x1="165.3484" y1="251.8876" x2="500.439" y2="251.8876" gradientTransform="matrix(1 0 0 -1 0 502)">
						<stop  offset="0" style="stop-color:#5865B9"/>
						<stop  offset="1" style="stop-color:#1C91E2"/>
					</linearGradient>
					<path style="fill:url(#SVGID_00000145033484282813130200000011509323702030839484_);" d="M500.4,67.1L500.4,67.1l-0.2,0.7
						c-0.5,1.4-0.9,2.8-1.4,4.2c-38.1,105.2-123.9,181.8-190.4,228L293,282.2c60.2-41.5,139.2-110.3,177.9-203.5
						c-101.8,18.9-192.7,83.5-243.9,174c-12,21-21.7,43.4-29.1,66.5c-2.5,8.3-5.1,16.6-6.9,25.2c30.2,26.1,68.8,40.4,108.9,40.4
						c6.7,0,13.6-0.5,20.3-1.2c-18.7-23.3-46.8-55.8-67.4-79.4c-9.7-11.1-11.5-27.2-4.4-40.4c0,0,0-0.2,0.2-0.2
						c34.6,37.4,68.1,76.8,99.2,117.2l0,0c0.2,0.2,0.2,0.2,0.5,0.5c12.7,16.6,25.4,33.5,37.6,50.8l6.9,9.5l-3.9,2.8
						c-3.2,2.3-7.2,3.5-10.8,3.5c-5.8,0-11.5-2.8-15.2-7.6c-6-8.1-14.5-19.8-21.2-29.1c-3-3.9-7.8-6-12.9-5.3
						c-9.5,1.4-19.2,2.1-28.8,2.1c-47.8,0-93.2-17.8-128.3-49.8c-0.5-0.5-1.2-0.9-1.4-1.4l-4.8-4.6l1.4-6.5c0.2-0.7,0.2-1.4,0.5-1.8
						c2.3-10.8,5.3-21.5,8.5-31.8c7.8-24.7,18.2-48.5,30.9-70.8c28.4-50.3,68.8-94.2,116.8-126.7c47.1-32.1,101.8-53.1,158.1-61.4
						h0.5l3.9-0.2C494.2,52.4,500.9,59,500.4,67.1z"/>
				</g>
				<g>
					
						<linearGradient id="SVGID_00000133531399572494348320000008087389811331850639_" gradientUnits="userSpaceOnUse" x1="117.6174" y1="339.1924" x2="133.0434" y2="339.1924" gradientTransform="matrix(1 0 0 -1 0 502)">
						<stop  offset="0" style="stop-color:#5865B9"/>
						<stop  offset="1" style="stop-color:#1C91E2"/>
					</linearGradient>
					<path style="fill:url(#SVGID_00000133531399572494348320000008087389811331850639_);" d="M127,167c0.9,0.7,2.1,1.4,3,2.3
						c0.7,0.5,1.6,0.2,2.1-0.5c1.4-2.5,1.6-5.8-0.5-9c-0.7-1.2-1.4-1.8-2.5-2.5c-4.2-2.3-8.3-1.4-10.8,1.2c-0.9,0.9-0.7,2.5,0.5,3.2
						C121.3,163.1,124.3,165,127,167z"/>
					
						<linearGradient id="SVGID_00000087393384520708805060000001521994487466876332_" gradientUnits="userSpaceOnUse" x1="116.7746" y1="339.3812" x2="133.882" y2="339.3812" gradientTransform="matrix(1 0 0 -1 0 502)">
						<stop  offset="0" style="stop-color:#5865B9"/>
						<stop  offset="1" style="stop-color:#1C91E2"/>
					</linearGradient>
					<path style="fill:url(#SVGID_00000087393384520708805060000001521994487466876332_);" d="M131,170.3c-0.5,0-0.9-0.2-1.4-0.5
						c-0.9-0.7-2.1-1.4-3-2.3l0,0c-2.8-2.1-5.5-3.9-8.3-5.5c-0.7-0.5-1.2-1.2-1.4-2.1c0-0.9,0.2-1.8,0.9-2.3c3.2-3,7.8-3.5,12-1.2
						c1.2,0.7,2.1,1.6,2.8,2.8c1.8,3.2,2.1,6.9,0.5,9.9c-0.2,0.5-0.9,0.9-1.4,1.2C131.2,170.3,131,170.3,131,170.3z M127.5,166.3
						c0.9,0.7,2.1,1.4,3,2.3c0,0,0.2,0.2,0.5,0c0,0,0.2,0,0.2-0.2c1.4-2.5,1.2-5.5-0.2-8.3c-0.5-0.9-1.4-1.6-2.3-2.1
						c-4.2-2.3-7.8-0.9-9.9,0.9c-0.2,0.2-0.5,0.7-0.5,0.9c0,0.5,0.2,0.7,0.5,0.9C122,162.4,124.7,164.3,127.5,166.3L127.5,166.3z"/>
				</g>
			</g>
		</g>
		<g>
			
				<linearGradient id="SVGID_00000101806398268848190930000006397295235993229196_" gradientUnits="userSpaceOnUse" x1="10.7948" y1="295.4988" x2="65.0945" y2="295.4988" gradientTransform="matrix(1 0 0 -1 0 502)">
				<stop  offset="0" style="stop-color:#5865B9"/>
				<stop  offset="1" style="stop-color:#1C91E2"/>
			</linearGradient>
			<path style="fill:url(#SVGID_00000101806398268848190930000006397295235993229196_);" d="M32.7,207v21.7H10.7v-14.8
				c0-5.5,0.9-10.8,3-15.5c1.8-4.6,5.1-9.2,9.7-13.8l8.1,6.2c-5.3,5.8-8.1,11.3-9,16.2H32.7z M65.2,207v21.7H43.5v-14.8
				c0-5.8,0.9-10.8,3-15.7c1.8-4.6,5.1-9.2,9.7-13.8l8.1,6.2c-5.3,5.8-8.1,11.3-9,16.2h9.9V207z"/>
		</g>
	</g>
	
		<linearGradient id="SVGID_00000036220398227284608160000012944691960625785477_" gradientUnits="userSpaceOnUse" x1="0.439" y1="271.9677" x2="199.7094" y2="271.9677" gradientTransform="matrix(1 0 0 -1 0 502)">
		<stop  offset="0" style="stop-color:#5865B9"/>
		<stop  offset="1" style="stop-color:#1C91E2"/>
	</linearGradient>
	<path style="fill:url(#SVGID_00000036220398227284608160000012944691960625785477_);" d="M144.6,333.2l2.8,3.5
		c2.1-9.2,7.4-28.4,7.4-28.8c-12.7-18-21.7-37.8-26.5-59.5c-0.2-1.2-0.5-2.1-0.7-3l-2.5-15.9c0-0.9-0.2-1.6-0.2-2.3v-1.2
		c0-0.9-0.2-1.8-0.2-2.8c0-0.2,0-0.5,0-0.7l-0.2-0.7c-0.9-4.8-5.8-29.5-10.8-42.2l-0.2-0.7l-3-6c-3-6.2-6.5-12.2-10.2-18.2
		c6.7-4.6,14.3-6.9,22.4-6.7c20.3,0.2,37.4,16.6,38.5,37.4c0,1.2,0,2.3-0.2,3.7l-1.4,7.2c-0.2,1.4,0.2,3,1.2,4.2l0,0
		c8.5,9.2,17.1,18.9,25.8,28.8l0.2,0.2c0.5-0.9,0.9-1.6,1.4-2.5c3.5-6.2,7.4-12.5,11.3-18.7L187,194.5c-1.6-1.8-2.5-4.2-2.5-6.7l0,0
		c0-8.5-1.6-17.1-5.1-24.9c-3.2-7.6-8.1-14.5-13.8-20.5c-12-11.8-27.7-18.2-44.3-18c-14.3,0.2-27.5,4.8-38.3,13.8
		c-23.8-8.1-48.7-13.2-73.8-14.8c-4.2-0.2-7.8,2.5-8.5,6.7c-0.5,2.1,0.2,4.4,1.4,6c1.4,1.8,3.2,2.8,5.3,3.2
		c23.3,3.5,45,11.5,64.6,24.5c7.4,4.8,13.4,11.5,17.3,19.4l2.5,5.1c3.9,10.6,7.8,27.2,9.2,35.3v0.2c0.7,9.9,2.1,20.1,4.2,29.8
		c6.2,27.7,18.2,53.1,35.8,75.5L144.6,333.2z"/>
</g>
</svg>
