<?xml version="1.0" encoding="utf-8"?>
<!-- Generator: Adobe Illustrator 27.0.0, SVG Export Plug-In . SVG Version: 6.00 Build 0)  -->
<svg version="1.1" id="Layer_1" xmlns="http://www.w3.org/2000/svg" xmlns:xlink="http://www.w3.org/1999/xlink" x="0px" y="0px"
	 viewBox="0 0 500 500" style="enable-background:new 0 0 500 500;" xml:space="preserve">
<style type="text/css">
	.st0{fill:url(#SVGID_1_);}
	.st1{fill:url(#SVGID_00000029008690799090812210000013547820559126962110_);}
	.st2{fill:url(#SVGID_00000018926758832211863130000016798955734621352356_);}
	.st3{fill:url(#SVGID_00000012456102067730954870000015553983797229425331_);}
	.st4{fill:url(#SVGID_00000119094742107529276440000014309863659891026855_);}
	.st5{fill:url(#SVGID_00000070098061796411027520000007620007147761150100_);}
</style>
<g>
	<g>
		<g>
			<g>
				<g>
					
						<linearGradient id="SVGID_1_" gradientUnits="userSpaceOnUse" x1="354.6639" y1="379.8398" x2="357.0612" y2="379.8398" gradientTransform="matrix(1 0 0 -1 0 502)">
						<stop  offset="0" style="stop-color:#5865B9"/>
						<stop  offset="1" style="stop-color:#1C91E2"/>
					</linearGradient>
					<path class="st0" d="M356.9,121.5c-0.7,0.5-1.6,0.9-2.3,1.4C355.5,122.4,356.2,121.9,356.9,121.5
						C357.1,121.5,356.9,121.5,356.9,121.5z"/>
					
						<linearGradient id="SVGID_00000045584488194216419380000008518600413286670498_" gradientUnits="userSpaceOnUse" x1="164.9095" y1="252" x2="500" y2="252" gradientTransform="matrix(1 0 0 -1 0 502)">
						<stop  offset="0" style="stop-color:#5865B9"/>
						<stop  offset="1" style="stop-color:#1C91E2"/>
					</linearGradient>
					<path style="fill:url(#SVGID_00000045584488194216419380000008518600413286670498_);" d="M500,67L500,67l-0.2,0.7
						c-0.5,1.4-0.9,2.8-1.4,4.2c-38.1,105.2-123.9,181.8-190.4,228l-15.5-17.8c60.2-41.5,139.2-110.3,177.9-203.5
						c-101.8,18.9-192.7,83.5-243.9,174c-12,21-21.7,43.4-29.1,66.5c-2.5,8.3-5.1,16.6-6.9,25.2c30.2,26.1,68.8,40.4,108.9,40.4
						c6.7,0,13.6-0.5,20.3-1.2c-18.7-23.3-46.8-55.8-67.4-79.4c-9.7-11.1-11.5-27.2-4.4-40.4c0,0,0-0.2,0.2-0.2
						c34.6,37.4,68.1,76.8,99.2,117.2l0,0c0.2,0.2,0.2,0.2,0.5,0.5c12.7,16.6,25.4,33.5,37.6,50.8l6.9,9.5l-3.9,2.8
						c-3.2,2.3-7.2,3.5-10.8,3.5c-5.8,0-11.5-2.8-15.2-7.6c-6-8.1-14.5-19.8-21.2-29.1c-3-3.9-7.8-6-12.9-5.3
						c-9.5,1.4-19.2,2.1-28.8,2.1c-47.8,0-93.2-17.8-128.3-49.8c-0.5-0.5-1.2-0.9-1.4-1.4l-4.8-4.6l1.4-6.5c0.2-0.7,0.2-1.4,0.5-1.8
						c2.3-10.8,5.3-21.5,8.5-31.8c7.8-24.7,18.2-48.5,30.9-70.8c28.4-50.3,68.8-94.2,116.8-126.7C370.1,82,424.7,61,481.1,52.7h0.5
						l3.9-0.2C493.7,52.2,500.4,58.9,500,67z"/>
				</g>
				<g>
					
						<linearGradient id="SVGID_00000131364104957931231460000010735041597149930937_" gradientUnits="userSpaceOnUse" x1="117.1784" y1="339.3048" x2="132.6044" y2="339.3048" gradientTransform="matrix(1 0 0 -1 0 502)">
						<stop  offset="0" style="stop-color:#5865B9"/>
						<stop  offset="1" style="stop-color:#1C91E2"/>
					</linearGradient>
					<path style="fill:url(#SVGID_00000131364104957931231460000010735041597149930937_);" d="M126.6,166.9c0.9,0.7,2.1,1.4,3,2.3
						c0.7,0.5,1.6,0.2,2.1-0.5c1.4-2.5,1.6-5.8-0.5-9c-0.7-1.2-1.4-1.8-2.5-2.5c-4.2-2.3-8.3-1.4-10.8,1.2c-0.9,0.9-0.7,2.5,0.5,3.2
						C120.8,163,123.8,164.9,126.6,166.9z"/>
					
						<linearGradient id="SVGID_00000158012727041772000050000010077490008735602582_" gradientUnits="userSpaceOnUse" x1="116.3356" y1="339.4937" x2="133.443" y2="339.4937" gradientTransform="matrix(1 0 0 -1 0 502)">
						<stop  offset="0" style="stop-color:#5865B9"/>
						<stop  offset="1" style="stop-color:#1C91E2"/>
					</linearGradient>
					<path style="fill:url(#SVGID_00000158012727041772000050000010077490008735602582_);" d="M130.5,170.2c-0.5,0-0.9-0.2-1.4-0.5
						c-0.9-0.7-2.1-1.4-3-2.3l0,0c-2.8-2.1-5.5-3.9-8.3-5.5c-0.7-0.5-1.2-1.2-1.4-2.1c0-0.9,0.2-1.8,0.9-2.3c3.2-3,7.8-3.5,12-1.2
						c1.2,0.7,2.1,1.6,2.8,2.8c1.8,3.2,2.1,6.9,0.5,9.9c-0.2,0.5-0.9,0.9-1.4,1.2C130.8,170.2,130.5,170.2,130.5,170.2z
						 M127.1,166.2c0.9,0.7,2.1,1.4,3,2.3c0,0,0.2,0.2,0.5,0c0,0,0.2,0,0.2-0.2c1.4-2.5,1.2-5.5-0.2-8.3c-0.5-0.9-1.4-1.6-2.3-2.1
						c-4.2-2.3-7.8-0.9-9.9,0.9c-0.2,0.2-0.5,0.7-0.5,0.9c0,0.5,0.2,0.7,0.5,0.9C121.5,162.3,124.3,164.2,127.1,166.2L127.1,166.2z"
						/>
				</g>
			</g>
		</g>
		<g>
			
				<linearGradient id="SVGID_00000166654269533967269970000007915860529522275973_" gradientUnits="userSpaceOnUse" x1="10.3558" y1="295.6113" x2="64.6555" y2="295.6113" gradientTransform="matrix(1 0 0 -1 0 502)">
				<stop  offset="0" style="stop-color:#5865B9"/>
				<stop  offset="1" style="stop-color:#1C91E2"/>
			</linearGradient>
			<path style="fill:url(#SVGID_00000166654269533967269970000007915860529522275973_);" d="M32.2,206.9v21.7H10.3v-14.8
				c0-5.5,0.9-10.8,3-15.5c1.8-4.6,5.1-9.2,9.7-13.8l8.1,6.2c-5.3,5.8-8.1,11.3-9,16.2H32.2z M64.8,206.9v21.7H43.1v-14.8
				c0-5.8,0.9-10.8,3-15.7c1.8-4.6,5.1-9.2,9.7-13.8l8.1,6.2c-5.3,5.8-8.1,11.3-9,16.2h9.9V206.9z"/>
		</g>
	</g>
	
		<linearGradient id="SVGID_00000097459620994866352040000005773385735459362490_" gradientUnits="userSpaceOnUse" x1="2.728484e-12" y1="272.0801" x2="199.2704" y2="272.0801" gradientTransform="matrix(1 0 0 -1 0 502)">
		<stop  offset="0" style="stop-color:#5865B9"/>
		<stop  offset="1" style="stop-color:#1C91E2"/>
	</linearGradient>
	<path style="fill:url(#SVGID_00000097459620994866352040000005773385735459362490_);" d="M144.1,333.1l2.8,3.5
		c2.1-9.2,7.4-28.4,7.4-28.8c-12.7-18-21.7-37.8-26.5-59.5c-0.2-1.2-0.5-2.1-0.7-3l-2.5-15.9c0-0.9-0.2-1.6-0.2-2.3v-1.2
		c0-0.9-0.2-1.8-0.2-2.8c0-0.2,0-0.5,0-0.7l-0.2-0.7c-0.9-4.8-5.8-29.5-10.8-42.2l-0.2-0.7l-3-6c-3-6.2-6.5-12.2-10.2-18.2
		c6.7-4.6,14.3-6.9,22.4-6.7c20.3,0.2,37.4,16.6,38.5,37.4c0,1.2,0,2.3-0.2,3.7l-1.4,7.2c-0.2,1.4,0.2,3,1.2,4.2l0,0
		c8.5,9.2,17.1,18.9,25.8,28.8l0.2,0.2c0.5-0.9,0.9-1.6,1.4-2.5c3.5-6.2,7.4-12.5,11.3-18.7l-12.2-13.6c-1.6-1.8-2.5-4.2-2.5-6.7
		l0,0c0-8.5-1.6-17.1-5.1-24.9c-3.2-7.6-8.1-14.5-13.8-20.5c-12-11.8-27.7-18.2-44.3-18c-14.3,0.2-27.5,4.8-38.3,13.8
		c-23.8-8.1-48.7-13.2-73.8-14.8c-4.2-0.2-7.8,2.5-8.5,6.7c-0.5,2.1,0.2,4.4,1.4,6c1.4,1.8,3.2,2.8,5.3,3.2
		c23.3,3.5,45,11.5,64.6,24.5c7.4,4.8,13.4,11.5,17.3,19.4l2.5,5.1c3.9,10.6,7.8,27.2,9.2,35.3v0.2c0.7,9.9,2.1,20.1,4.2,29.8
		c6.2,27.7,18.2,53.1,35.8,75.5L144.1,333.1z"/>
</g>
</svg>
