<?xml version="1.0" encoding="utf-8"?>
<!-- Generator: Adobe Illustrator 27.0.0, SVG Export Plug-In . SVG Version: 6.00 Build 0)  -->
<svg version="1.1" id="Layer_1" xmlns="http://www.w3.org/2000/svg" xmlns:xlink="http://www.w3.org/1999/xlink" x="0px" y="0px"
	 viewBox="0 0 2269.8 582.2" style="enable-background:new 0 0 2269.8 582.2;" xml:space="preserve">
<style type="text/css">
	.st0{fill:url(#SVGID_1_);}
</style>
<linearGradient id="SVGID_1_" gradientUnits="userSpaceOnUse" x1="1463.9684" y1="899.8276" x2="752.3514" y2="-195.9667" gradientTransform="matrix(1 0 0 -1 0 583.4429)">
	<stop  offset="0" style="stop-color:#5865B9"/>
	<stop  offset="1" style="stop-color:#1C91E2"/>
</linearGradient>
<path class="st0" d="M1047.9,269.4c-6.5,0-11.8,5.3-11.8,11.8c-12.4-10.3-28.5-16.2-48.5-16.2c-37.3,0-72,31.8-72,77.9
	s34.7,77.6,72,77.6c20,0,36.2-5.9,48.5-15.9v11.5h38.8V269.4L1047.9,269.4L1047.9,269.4z M994.4,386.7c-23.5,0-41.2-16.8-41.2-43.8
	s17.6-44.1,41.2-44.1c20.9,0,41.7,17,41.7,44.1C1036.1,370,1015.2,386.7,994.4,386.7z M1217.8,268.5l-2.1,37.3h-8.5
	c-35.9,0-52.3,22-52.3,62.9v47.3h-38.8V269.4h38.8v26.8c11.8-17,28.8-28.8,52.6-28.8C1211.3,267.4,1214.3,267.4,1217.8,268.5z
	 M1242.2,416.1V243.3c0-21.4,17.4-38.8,38.8-38.8l0,0v211.7H1242.2z M1804,225.6c0,12.9-10,22.6-23.5,22.6
	c-13.8,0-23.5-9.7-23.5-22.6c0-12.4,9.7-23.2,23.5-23.2C1794,202.4,1804,213.3,1804,225.6z M1761.1,416.1V308.2
	c0-21.4,17.4-38.8,38.8-38.8l0,0v146.7H1761.1z M1944.8,268.5l-2.1,37.3h-8.5c-35.9,0-52.3,22-52.3,62.9v47.3h-38.8V269.4h38.8v26.8
	c11.8-17,28.8-28.8,52.6-28.8C1938.3,267.4,1941.3,267.4,1944.8,268.5z M2074.7,243.3v37.9c-12.4-10.3-28.5-16.2-48.5-16.2
	c-37.3,0-72,31.8-72,77.9s34.7,77.6,72,77.6c20,0,36.2-5.9,48.5-15.9v11.5h38.8V204.4C2092.1,204.4,2074.7,221.8,2074.7,243.3z
	 M2033,386.7c-23.5,0-41.2-16.8-41.2-43.8s17.6-44.1,41.2-44.1c20.9,0,41.7,17,41.7,44.1C2074.8,370,2053.9,386.7,2033,386.7z
	 M2175.5,215.1h-16.6v-8.1h42.4v8.1h-16.7v53.2h-9.1V215.1z M2260.6,206.9h9.2v61.3h-9.1v-47l-17.9,24.6h-7l-18-24.6v47h-9.1v-61.3
	h9.1l21.5,29.5L2260.6,206.9z M780.9,255.4L780.9,255.4l109.1-0.1l0,0c0-20-16.2-36.2-36.2-36.2H740.9v36.2H780.9z M780.9,380v-44.7
	h100.5l0,0c0-19.6-15.9-35.6-35.6-35.6h-24.5h-40.5h-40v116.4h149.6l0,0c0-20-16.2-36.2-36.2-36.2L780.9,380L780.9,380z
	 M1691.7,315.6v-1.2c11.8-2.1,28.8-15.6,28.8-40.6c0-32.9-22.6-54.7-58.2-54.7h-97V247c0,22.1,17.9,40,40,40v-33.8h52.6
	c12.9,0,23.8,9.1,23.8,22.9c0,15.3-10.6,25.3-26.5,25.3h-33.4h-16.6h-40v114.6h97.3c43.8,0,63.5-22.6,63.5-54.7
	C1726.1,333.5,1707.9,317.6,1691.7,315.6z M1658.2,382h-52.9v-48.8h55c13.5,0,24.9,10.8,24.9,24.3
	C1685.3,372.3,1676.2,382,1658.2,382z M526,101.3c-1.1,0.7-2.2,1.3-3.4,2c1.2-0.6,2.3-1.2,3.5-1.7C526.1,101.5,526,101.4,526,101.3z
	 M715.4,0l-5.9,0.4l-0.5,0.1c-83,11.9-163.5,43.2-232.8,90.3c-70.5,48-130,112.5-172,186.7c-18.7,33-34.1,68.1-45.7,104.4
	c-4.9,15.4-9.2,31.2-12.7,47c-0.2,1-0.4,1.9-0.7,2.9l-2.1,9.6l7.2,6.7c0.7,0.6,1.4,1.3,2.2,2c51.8,47.4,118.9,73.5,189.2,73.5
	c14.2,0,28.5-1.1,42.5-3.2c7.4-1.1,14.6,1.8,19,7.7c10.1,13.6,22.7,30.7,31.4,42.7c5.4,7.4,13.9,11.4,22.5,11.4
	c5.6,0,11.2-1.7,16.1-5.2l5.7-4l-10-14.1c-18.1-25.2-36.8-50.4-55.6-74.7c-0.2-0.3-0.5-0.6-0.6-0.8l0,0
	c-46.2-59.8-95.4-117.9-146.4-172.9c-0.1,0.1-0.1,0.2-0.2,0.3c-10.6,19.1-8,42.9,6.4,59.4c30.3,34.6,71.8,82.6,99.2,117
	c-9.9,1.2-20,1.8-30,1.8c-59.1,0-115.9-21.1-160.5-59.6c3-12.4,6.5-24.9,10.3-37c10.8-34,25.2-66.9,42.8-97.9
	C409.7,161,543.4,65.9,693.5,38c-57.3,137.4-173.6,238.6-262.3,299.8l22.7,26.3c97.8-68,224.5-180.9,280.5-335.9
	c0.7-2,1.5-4.1,2.2-6.2l0.3-1l0,0C737.4,9.1,727.4-0.7,715.4,0z M186.5,168.2c1.5,1.1,3,2.2,4.4,3.3c0.9,0.7,2.3,0.4,2.9-0.6
	c2-3.7,2.2-8.5-0.5-13.4c-0.9-1.5-2.2-2.8-3.7-3.7c-6.1-3.4-12.2-2.1-16.1,1.6c-1.4,1.3-1.1,3.6,0.5,4.6
	C178.1,162.5,182.3,165.2,186.5,168.2z M192.1,173.2c-0.7,0-1.4-0.2-1.9-0.7c-1.4-1.1-2.9-2.2-4.4-3.3l0,0
	c-4.1-2.9-8.2-5.7-12.4-8.1c-1.1-0.7-1.9-1.8-2-3.1s0.3-2.6,1.3-3.5c4.6-4.4,11.5-5.1,17.5-1.8c1.8,1,3.2,2.4,4.2,4.1
	c2.7,4.8,2.9,10.1,0.5,14.6c-0.4,0.8-1.2,1.4-2.1,1.6C192.6,173.1,192.4,173.2,192.1,173.2z M187.3,167.2c1.5,1.1,3,2.2,4.4,3.3
	c0.2,0.1,0.4,0.2,0.6,0.1c0.1,0,0.3-0.1,0.5-0.3c2-3.7,1.8-8.1-0.5-12.1c-0.8-1.4-1.9-2.5-3.2-3.2c-6.1-3.4-11.6-1.5-14.6,1.4
	c-0.4,0.4-0.6,0.9-0.5,1.4c0.1,0.5,0.4,1,0.8,1.2C178.9,161.5,183.1,164.2,187.3,167.2L187.3,167.2z M47.3,227.1v32.1H15.2v-21.7
	c0-8.4,1.4-16.1,4.3-23c2.9-7,7.6-13.7,14.2-20.3l11.8,9.1c-7.7,8.6-12,16.5-13.1,23.8H47.3z M95.2,227.1v32.1H63.1v-21.7
	c0-8.4,1.4-16.1,4.3-23c2.8-7,7.6-13.7,14.2-20.3l11.8,9.1c-7.7,8.6-12,16.5-13.1,23.8H95.2z M212.3,413.3l4.1,5.1
	c2.9-13.6,10.8-41.8,11-42.5c-18.7-26.4-31.8-55.9-39-87.6c-0.4-1.6-0.7-3.1-1-4.5l-3.6-23.5c-0.1-1.3-0.2-2.4-0.3-3.4l-0.1-1.6
	c-0.1-1.4-0.2-2.8-0.3-4.2c0-0.4-0.1-0.8-0.1-1.1l-0.2-0.9c-1.4-7.2-8.7-43.4-15.9-62.3l-0.4-1l-4.4-8.9
	c-4.6-9.1-9.5-18.1-14.9-26.7c9.7-6.7,21.1-10.1,33.1-10c30,0.4,55,24.6,56.8,55.2c0.1,1.7,0,3.5-0.4,5.3l-2.1,10.6
	c-0.4,2.2,0.2,4.4,1.7,6.1l0,0c12.4,13.5,25.3,27.8,38.2,42.3l0.4,0.5c0.7-1.2,1.4-2.5,2.1-3.7c5.3-9.3,10.8-18.4,16.7-27.4
	l-18.1-19.9c-2.5-2.7-3.9-6.3-3.9-9.9l0,0c0-12.7-2.5-25.1-7.6-36.9c-4.9-11.3-11.8-21.5-20.6-30.1c-17.7-17.5-40.9-26.9-65.4-26.5
	c-20.9,0.3-40.4,7.3-56.4,20.3C86.6,114.1,50,106.7,12.8,104.2C6.7,103.8,1.1,108,0.2,114c-0.5,3.1,0.2,6.3,2.1,8.8s4.6,4.2,7.8,4.7
	c34.3,5,66.4,17.1,95.3,36c10.9,7.1,19.8,17.1,25.5,28.7l3.7,7.5c5.9,15.5,11.7,40,13.8,52.1l0,0.5c0.9,14.7,3,29.4,6.3,43.7
	c9.1,40.7,26.9,78.1,52.7,111.1L212.3,413.3z M1370.5,360.1l-13.6,31.4l-52.3-122.4h43.2l23,55.6
	C1375.4,336.1,1375.3,348.8,1370.5,360.1z M1470.3,269.1l-85.3,197h-43.2l68.1-157.3C1420.4,284.7,1444.1,269.1,1470.3,269.1z"/>
</svg>
