<?xml version="1.0" encoding="utf-8"?>
<!-- Generator: Adobe Illustrator 27.0.0, SVG Export Plug-In . SVG Version: 6.00 Build 0)  -->
<svg version="1.1" id="Layer_1" xmlns="http://www.w3.org/2000/svg" xmlns:xlink="http://www.w3.org/1999/xlink" x="0px" y="0px"
	 viewBox="0 0 225 225" style="enable-background:new 0 0 225 225;" xml:space="preserve">
<style type="text/css">
	.st0{fill:url(#SVGID_1_);}
	.st1{fill:url(#SVGID_00000116199118482740235860000002191082686274657469_);}
	.st2{fill:url(#SVGID_00000139271857939452842080000011543022795322475684_);}
	.st3{fill:url(#SVGID_00000024697420916250969570000016022574979334274717_);}
	.st4{fill:url(#SVGID_00000064321091097559792930000010130771077523256467_);}
	.st5{fill:url(#SVGID_00000054245878012675582110000013936855651554812599_);}
</style>
<g>
	<g>
		<g>
			<g>
				<g>
					
						<linearGradient id="SVGID_1_" gradientUnits="userSpaceOnUse" x1="157.8555" y1="164.35" x2="158.8944" y2="164.35" gradientTransform="matrix(1 0 0 -1 0 226)">
						<stop  offset="0" style="stop-color:#5865B9"/>
						<stop  offset="1" style="stop-color:#1C91E2"/>
					</linearGradient>
					<path class="st0" d="M158.8,61.4c-0.3,0.2-0.7,0.4-1,0.6C158.2,61.8,158.5,61.6,158.8,61.4C158.9,61.4,158.8,61.4,158.8,61.4z"
						/>
					
						<linearGradient id="SVGID_00000159435975775544611770000005284370467728314534_" gradientUnits="userSpaceOnUse" x1="75.6265" y1="108.9513" x2="220.8362" y2="108.9513" gradientTransform="matrix(1 0 0 -1 0 226)">
						<stop  offset="0" style="stop-color:#5865B9"/>
						<stop  offset="1" style="stop-color:#1C91E2"/>
					</linearGradient>
					<path style="fill:url(#SVGID_00000159435975775544611770000005284370467728314534_);" d="M220.8,37.8L220.8,37.8l-0.1,0.3
						c-0.2,0.6-0.4,1.2-0.6,1.8c-16.5,45.6-53.7,78.8-82.5,98.8l-6.7-7.7c26.1-18,60.3-47.8,77.1-88.2
						C163.9,51,124.5,79,102.3,118.2c-5.2,9.1-9.4,18.8-12.6,28.8c-1.1,3.6-2.2,7.2-3,10.9c13.1,11.3,29.8,17.5,47.2,17.5
						c2.9,0,5.9-0.2,8.8-0.5c-8.1-10.1-20.3-24.2-29.2-34.4c-4.2-4.8-5-11.8-1.9-17.5c0,0,0-0.1,0.1-0.1c15,16.2,29.5,33.3,43,50.8
						l0,0c0.1,0.1,0.1,0.1,0.2,0.2c5.5,7.2,11,14.5,16.3,22l3,4.1l-1.7,1.2c-1.4,1-3.1,1.5-4.7,1.5c-2.5,0-5-1.2-6.6-3.3
						c-2.6-3.5-6.3-8.6-9.2-12.6c-1.3-1.7-3.4-2.6-5.6-2.3c-4.1,0.6-8.3,0.9-12.5,0.9c-20.7,0-40.4-7.7-55.6-21.6
						c-0.2-0.2-0.5-0.4-0.6-0.6l-2.1-2l0.6-2.8c0.1-0.3,0.1-0.6,0.2-0.8c1-4.7,2.3-9.3,3.7-13.8c3.4-10.7,7.9-21,13.4-30.7
						c12.3-21.8,29.8-40.8,50.6-54.9c20.4-13.9,44.1-23,68.5-26.6h0.2l1.7-0.1C218.1,31.4,221,34.3,220.8,37.8z"/>
				</g>
				<g>
					
						<linearGradient id="SVGID_00000143590917314077018450000013971787455051186340_" gradientUnits="userSpaceOnUse" x1="54.9424" y1="146.7844" x2="61.6272" y2="146.7844" gradientTransform="matrix(1 0 0 -1 0 226)">
						<stop  offset="0" style="stop-color:#5865B9"/>
						<stop  offset="1" style="stop-color:#1C91E2"/>
					</linearGradient>
					<path style="fill:url(#SVGID_00000143590917314077018450000013971787455051186340_);" d="M59,81.1c0.4,0.3,0.9,0.6,1.3,1
						c0.3,0.2,0.7,0.1,0.9-0.2c0.6-1.1,0.7-2.5-0.2-3.9c-0.3-0.5-0.6-0.8-1.1-1.1c-1.8-1-3.6-0.6-4.7,0.5c-0.4,0.4-0.3,1.1,0.2,1.4
						C56.5,79.4,57.8,80.2,59,81.1z"/>
					
						<linearGradient id="SVGID_00000177457699337433871040000016650058079002075266_" gradientUnits="userSpaceOnUse" x1="54.5772" y1="146.8662" x2="61.9906" y2="146.8662" gradientTransform="matrix(1 0 0 -1 0 226)">
						<stop  offset="0" style="stop-color:#5865B9"/>
						<stop  offset="1" style="stop-color:#1C91E2"/>
					</linearGradient>
					<path style="fill:url(#SVGID_00000177457699337433871040000016650058079002075266_);" d="M60.7,82.5c-0.2,0-0.4-0.1-0.6-0.2
						c-0.4-0.3-0.9-0.6-1.3-1l0,0c-1.2-0.9-2.4-1.7-3.6-2.4c-0.3-0.2-0.5-0.5-0.6-0.9c0-0.4,0.1-0.8,0.4-1c1.4-1.3,3.4-1.5,5.2-0.5
						c0.5,0.3,0.9,0.7,1.2,1.2c0.8,1.4,0.9,3,0.2,4.3c-0.1,0.2-0.4,0.4-0.6,0.5C60.8,82.5,60.7,82.5,60.7,82.5z M59.2,80.8
						c0.4,0.3,0.9,0.6,1.3,1c0,0,0.1,0.1,0.2,0c0,0,0.1,0,0.1-0.1c0.6-1.1,0.5-2.4-0.1-3.6c-0.2-0.4-0.6-0.7-1-0.9
						c-1.8-1-3.4-0.4-4.3,0.4c-0.1,0.1-0.2,0.3-0.2,0.4c0,0.2,0.1,0.3,0.2,0.4C56.8,79.1,58,79.9,59.2,80.8L59.2,80.8z"/>
				</g>
			</g>
		</g>
		<g>
			
				<linearGradient id="SVGID_00000108281129821583353060000007151567775372182187_" gradientUnits="userSpaceOnUse" x1="8.6514" y1="127.85" x2="32.1819" y2="127.85" gradientTransform="matrix(1 0 0 -1 0 226)">
				<stop  offset="0" style="stop-color:#5865B9"/>
				<stop  offset="1" style="stop-color:#1C91E2"/>
			</linearGradient>
			<path style="fill:url(#SVGID_00000108281129821583353060000007151567775372182187_);" d="M18.1,98.4v9.4H8.6v-6.4
				c0-2.4,0.4-4.7,1.3-6.7c0.8-2,2.2-4,4.2-6l3.5,2.7c-2.3,2.5-3.5,4.9-3.9,7H18.1z M32.2,98.4v9.4h-9.4v-6.4c0-2.5,0.4-4.7,1.3-6.8
				c0.8-2,2.2-4,4.2-6l3.5,2.7c-2.3,2.5-3.5,4.9-3.9,7h4.3V98.4z"/>
		</g>
	</g>
	
		<linearGradient id="SVGID_00000173879881069629437670000003762697225460427908_" gradientUnits="userSpaceOnUse" x1="4.1638" y1="117.6529" x2="90.5166" y2="117.6529" gradientTransform="matrix(1 0 0 -1 0 226)">
		<stop  offset="0" style="stop-color:#5865B9"/>
		<stop  offset="1" style="stop-color:#1C91E2"/>
	</linearGradient>
	<path style="fill:url(#SVGID_00000173879881069629437670000003762697225460427908_);" d="M66.6,153.1l1.2,1.5
		c0.9-4,3.2-12.3,3.2-12.5c-5.5-7.8-9.4-16.4-11.5-25.8c-0.1-0.5-0.2-0.9-0.3-1.3l-1.1-6.9c0-0.4-0.1-0.7-0.1-1v-0.5
		c0-0.4-0.1-0.8-0.1-1.2c0-0.1,0-0.2,0-0.3l-0.1-0.3c-0.4-2.1-2.5-12.8-4.7-18.3L53,86.1l-1.3-2.6c-1.3-2.7-2.8-5.3-4.4-7.9
		c2.9-2,6.2-3,9.7-2.9c8.8,0.1,16.2,7.2,16.7,16.2c0,0.5,0,1-0.1,1.6L73,93.6c-0.1,0.6,0.1,1.3,0.5,1.8l0,0c3.7,4,7.4,8.2,11.2,12.5
		l0.1,0.1c0.2-0.4,0.4-0.7,0.6-1.1c1.5-2.7,3.2-5.4,4.9-8.1L85,92.9c-0.7-0.8-1.1-1.8-1.1-2.9l0,0c0-3.7-0.7-7.4-2.2-10.8
		c-1.4-3.3-3.5-6.3-6-8.9c-5.2-5.1-12-7.9-19.2-7.8c-6.2,0.1-11.9,2.1-16.6,6c-10.3-3.5-21.1-5.7-32-6.4C6.1,62,4.5,63.2,4.2,65
		C4,66,4.3,67,4.8,67.7c0.6,0.8,1.4,1.2,2.3,1.4c10.1,1.5,19.5,5,28,10.6c3.2,2.1,5.8,5,7.5,8.4l1.1,2.2c1.7,4.6,3.4,11.8,4,15.3
		v0.1c0.3,4.3,0.9,8.7,1.8,12.9c2.7,12,7.9,23,15.5,32.7L66.6,153.1z"/>
</g>
</svg>
